<svg width="24" height="24" viewBox="0 0 24 24" fill="none" xmlns="http://www.w3.org/2000/svg">
  <path d="M4.66006 14.4902L5.66006 12.8302C5.87006 12.4602 6.06006 11.7602 6.06006 11.3502V8.82016C6.06125 7.70419 6.37839 6.61137 6.97477 5.66813C7.57116 4.72489 8.42241 3.96978 9.43006 3.49016C9.68724 3.0335 10.0624 2.6543 10.5162 2.3922C10.9701 2.13009 11.486 1.99469 12.0101 2.00016C13.1001 2.00016 14.0801 2.59016 14.6001 3.52016C16.5501 4.49016 17.9001 6.50016 17.9001 8.82016V11.3502C17.9001 11.7602 18.0901 12.4602 18.3001 12.8202L19.3101 14.4902C19.7101 15.1602 19.8001 15.9002 19.5501 16.5802C19.3101 17.2502 18.7401 17.7702 18.0001 18.0202C16.0601 18.6802 14.0201 19.0002 11.9801 19.0002C9.94006 19.0002 7.90006 18.6802 5.96006 18.0302C5.26006 17.8002 4.72006 17.2702 4.46006 16.5802C4.20006 15.8902 4.27006 15.1302 4.66006 14.4902ZM9.17006 20.0102C9.38035 20.5923 9.76478 21.0956 10.2711 21.4516C10.7774 21.8077 11.3811 21.9992 12.0001 22.0002C12.7901 22.0002 13.5701 21.6802 14.1201 21.1102C14.4401 20.8102 14.6801 20.4102 14.8201 20.0002C14.6901 20.0202 14.5601 20.0302 14.4201 20.0502C14.1901 20.0802 13.9501 20.1102 13.7101 20.1302C13.1401 20.1802 12.5601 20.2102 11.9801 20.2102C11.4101 20.2102 10.8401 20.1802 10.2801 20.1302C10.0701 20.1102 9.86006 20.1002 9.66006 20.0702L9.17006 20.0102Z" fill="#64748B"/>
</svg>
