<svg width="20" height="20" viewBox="0 0 20 20" fill="none" xmlns="http://www.w3.org/2000/svg">
  <path d="M18.0902 7.21994C16.2802 7.21994 15.5402 5.93994 16.4402 4.36994C16.9602 3.45994 16.6502 2.29994 15.7402 1.77994L14.0102 0.789936C13.2202 0.319936 12.2002 0.599937 11.7302 1.38994L11.6202 1.57994C10.7202 3.14994 9.24023 3.14994 8.33023 1.57994L8.22023 1.38994C8.11244 1.20092 7.96812 1.03523 7.79569 0.902501C7.62325 0.769778 7.42615 0.672673 7.21584 0.616838C7.00552 0.561003 6.78621 0.547553 6.57065 0.57727C6.35509 0.606987 6.14759 0.679278 5.96023 0.789936L4.23023 1.77994C3.32023 2.29994 3.01023 3.46994 3.53023 4.37994C4.44023 5.93994 3.70023 7.21994 1.89023 7.21994C0.850235 7.21994 -0.00976562 8.06994 -0.00976562 9.11994V10.8799C-0.00976562 11.9199 0.840235 12.7799 1.89023 12.7799C3.70023 12.7799 4.44023 14.0599 3.53023 15.6299C3.01023 16.5399 3.32023 17.6999 4.23023 18.2199L5.96023 19.2099C6.75023 19.6799 7.77023 19.3999 8.24023 18.6099L8.35023 18.4199C9.25023 16.8499 10.7302 16.8499 11.6402 18.4199L11.7502 18.6099C12.2202 19.3999 13.2402 19.6799 14.0302 19.2099L15.7602 18.2199C16.6702 17.6999 16.9802 16.5299 16.4602 15.6299C15.5502 14.0599 16.2902 12.7799 18.1002 12.7799C19.1402 12.7799 20.0002 11.9299 20.0002 10.8799V9.11994C19.995 8.61592 19.7918 8.13418 19.4344 7.77871C19.0771 7.42323 18.5943 7.22253 18.0902 7.21994ZM9.99023 13.2499C8.20023 13.2499 6.74023 11.7899 6.74023 9.99994C6.74023 8.20994 8.20023 6.74994 9.99023 6.74994C11.7802 6.74994 13.2402 8.20994 13.2402 9.99994C13.2402 11.7899 11.7802 13.2499 9.99023 13.2499Z" fill="#64748B"/>
</svg>
